Coordinates
version=1
nRows=11
nColumns=36
inDegrees=yes

Units are S.I. units (second, meters, Newtons, ...)
If the header above contains a line with 'inDegrees', this indicates whether rotational values are in degrees (yes) or radians (no).

endheader
time	pelvis_tilt	pelvis_list	pelvis_rotation	pelvis_tx	pelvis_ty	pelvis_tz	hip_flexion_r	hip_adduction_r	hip_rotation_r	knee_angle_r	knee_angle_r_beta	ankle_angle_r	subtalar_angle_r	mtp_angle_r	hip_flexion_l	hip_adduction_l	hip_rotation_l	knee_angle_l	knee_angle_l_beta	ankle_angle_l	subtalar_angle_l	mtp_angle_l	lumbar_extension	lumbar_bending	lumbar_rotation	arm_flex_r	arm_add_r	arm_rot_r	elbow_flex_r	pro_sup_r	arm_flex_l	arm_add_l	arm_rot_l	elbow_flex_l	pro_sup_l
      0.00000000	     -4.16575844	     -0.17253975	      0.31247547	     -0.13344225	      0.95609056	     -0.60541731	      0.96499972	     -5.87960756	     -3.56491682	      1.67029003	      0.02915206	      5.95011668	     -0.22614055	     -4.83358349	      1.77099564	     -5.90585175	     -2.60765466	      1.80255861	      0.03146058	      5.11658052	     -2.28549577	     -4.83358349	     -0.99088913	     -0.32686429	     -0.93806458	      0.42818714	     -2.26136632	    -12.82658280	     30.43955312	    111.13434131	      4.33216536	     -4.17255490	      9.03468955	     24.22919657	    103.68806180
      0.01000000	     -4.18439256	     -0.17522487	      0.28308550	     -0.13337319	      0.95603905	     -0.60536160	      0.99180703	     -5.86551268	     -3.52544060	      1.68578862	      0.02942256	      5.95554582	     -0.33945359	     -6.21916522	      1.82428700	     -5.91597090	     -2.85037978	      1.88640652	      0.03292400	      5.33362234	     -1.97459283	     -6.21916522	     -0.93108725	     -0.35839929	     -1.16923269	      0.63493470	     -2.40001499	    -11.86097018	     30.05650561	    111.60001683	      4.05970773	     -4.10450021	      7.92420069	     24.51444770	    104.50932850
      0.02000000	     -4.20391381	     -0.21854256	      0.32562544	     -0.13337263	      0.95602968	     -0.60542943	      0.98711049	     -5.80689326	     -3.51925022	      1.63955809	      0.02861569	      5.79906578	     -0.58001180	     -6.66823795	      1.83971671	     -5.95115420	     -2.70535037	      1.86621089	      0.03257152	      5.29464032	     -2.14006282	     -6.66823795	     -0.87224718	     -0.31349069	     -1.23067958	      0.76754124	     -2.64634656	    -10.25921726	     29.75824262	    108.26847869	      4.16364930	     -4.23483268	      9.48321499	     24.42014813	    100.88836418
      0.03000000	     -4.14840301	     -0.20331139	      0.28238514	     -0.13330635	      0.95607122	     -0.60538069	      0.94631684	     -5.83036341	     -3.53218414	      1.67768139	      0.02928106	      5.93563877	     -0.35488924	     -6.91063054	      1.78284447	     -5.94883255	     -2.97558008	      1.89908510	      0.03314529	      5.46303680	     -1.75305824	     -6.91063054	     -0.96929915	     -0.32955790	     -1.11491605	      0.62145014	     -2.42131196	    -11.90595514	     30.07565012	    111.49967967	      4.06786878	     -4.09446535	      7.99496942	     24.52567161	    104.43611760
      0.04000000	     -4.13787081	     -0.19962925	      0.25839887	     -0.13331699	      0.95606203	     -0.60536827	      0.93322511	     -5.83451930	     -3.44200748	      1.66154057	      0.02899935	      5.92329457	     -0.43893916	     -7.17058462	      1.76361939	     -5.94170223	     -2.96237947	      1.88931248	      0.03297472	      5.34338419	     -1.75096712	     -7.17058462	     -0.96616343	     -0.33269154	     -0.92821677	      0.51729864	     -2.38241974	    -12.31997602	     30.19573533	    111.29117286	      4.24834605	     -4.08110670	      8.58121332	     24.22992201	    104.13884616
      0.05000000	     -4.13094392	     -0.19768988	      0.25590338	     -0.13330300	      0.95607136	     -0.60537049	      0.92476796	     -5.83322187	     -3.41504433	      1.66206096	      0.02900844	      5.90768891	     -0.49503138	     -7.30129798	      1.75805502	     -5.94234470	     -3.00388046	      1.89623924	      0.03309562	      5.39801151	     -1.53872698	     -7.30129798	     -0.97220521	     -0.34412471	     -1.02254472	      0.59729159	     -2.41362190	    -12.11204167	     30.11720615	    111.52585637	      4.15858281	     -4.03918565	      8.16164685	     24.33966466	    104.10961108
      0.06000000	     -4.04906703	     -0.20355926	      0.28879440	     -0.13311288	      0.95623065	     -0.60539878	      0.81689624	     -5.82849905	     -3.65871354	      1.63868718	      0.02860049	      5.74054648	     -0.27403499	     -7.34622142	      1.65761515	     -5.96179513	     -3.21803793	      1.86622068	      0.03257170	      5.40669207	     -1.06091933	     -7.34622142	     -1.04323291	     -0.35901656	     -1.14944688	      0.69141767	     -2.43985377	    -11.40453267	     30.13282140	    107.79248565	      4.07200503	     -3.96283445	      8.05762974	     24.72212639	    100.59318077
      0.07000000	     -4.15870848	     -0.23578553	      0.32029096	     -0.13308365	      0.95606709	     -0.60542324	      0.92639017	     -5.79082262	     -3.55768508	      1.65676287	      0.02891597	      5.93302960	     -0.38387658	     -7.38700936	      1.78046732	     -5.98738869	     -2.93843455	      1.88153835	      0.03283904	      5.40619771	     -1.60764207	     -7.38700936	     -0.89454109	     -0.32037618	     -1.06884867	      0.59286563	     -2.43863954	    -12.03556631	     30.03485694	    111.47777479	      4.18696611	     -4.00022394	      8.25268091	     24.16196805	    103.95827816
      0.08000000	     -4.12110677	     -0.22023420	      0.31080078	     -0.13304556	      0.95615008	     -0.60544625	      0.87418086	     -5.80675736	     -3.54245855	      1.63302649	      0.02850169	      5.73842664	     -0.52534540	     -7.43049807	      1.71726139	     -5.95464684	     -2.94871410	      1.82615166	      0.03187236	      5.14304595	     -1.94062660	     -7.43049807	     -0.90097189	     -0.35457869	     -1.17339410	      0.79206805	     -2.67755105	    -10.15744318	     29.74106115	    107.26013732	      4.20817729	     -4.09553348	      9.46666420	     24.36359218	     99.19279399
      0.09000000	     -4.14238724	     -0.21442452	      0.30192986	     -0.13312676	      0.95605543	     -0.60544884	      0.91261348	     -5.81780123	     -3.49168689	      1.65650676	      0.02891150	      5.87383455	     -0.47259281	     -7.44323223	      1.75829266	     -5.95420481	     -2.95736765	      1.87294355	      0.03268903	      5.42518394	     -1.73052507	     -7.44323223	     -0.89981919	     -0.34663893	     -0.99461887	      0.63892246	     -2.51120985	    -11.83873916	     29.98617304	    111.53181805	      4.34394702	     -4.10656537	      9.16188239	     23.92705216	    103.43669206
      0.10000000	     -4.15301097	     -0.22312103	      0.26987423	     -0.13319775	      0.95602747	     -0.60547859	      0.93621119	     -5.81344403	     -3.32703575	      1.65894157	      0.02895399	      5.82226069	     -0.66385947	     -7.46693825	      1.76639739	     -5.96422575	     -2.95987003	      1.87398799	      0.03270726	      5.43963253	     -1.79677604	     -7.46693825	     -0.87552087	     -0.33844295	     -0.88146818	      0.62088109	     -2.59544261	    -11.61507384	     30.01468280	    111.34981135	      4.47056755	     -4.12062302	      9.54180048	     23.77637825	    103.34314610
